<svg xmlns="http://www.w3.org/2000/svg" version="1.1" xmlns:xlink="http://www.w3.org/1999/xlink" xmlns:svgjs="http://svgjs.dev/svgjs" width="2000" height="2000" viewBox="0 0 2000 2000"><g transform="matrix(1,0,0,1,-0.9999999999998863,-0.9999999999998863)"><svg viewBox="0 0 280 280" data-background-color="#000000" preserveAspectRatio="xMidYMid meet" height="2000" width="2000" xmlns="http://www.w3.org/2000/svg" xmlns:xlink="http://www.w3.org/1999/xlink"><g id="tight-bounds" transform="matrix(1,0,0,1,0.13999999999998636,0.13999999999998636)"><svg viewBox="0 0 279.72 279.72" height="279.72" width="279.72"><g><svg viewBox="0 0 279.72 279.72" height="279.72" width="279.72"><g><svg viewBox="0 0 279.72 279.72" height="279.72" width="279.72"><g id="textblocktransform"><svg viewBox="0 0 279.72 279.72" height="279.72" width="279.72" id="textblock"><g><svg viewBox="0 0 279.72 279.72" height="279.72" width="279.72"><g transform="matrix(1,0,0,1,57.446704652707865,57.446704652707865)"><svg viewBox="0 0 164.8265906945843 164.8265906945843" height="164.8265906945843" width="164.8265906945843"><g id="icon-0"><circle r="82" cx="82.41329534729215" cy="82.41329534729215" fill="#ffffff" data-fill-palette-color="accent"></circle><svg xmlns="http://www.w3.org/2000/svg" xmlns:xlink="http://www.w3.org/1999/xlink" version="1.1" x="24.723988604187646" y="24.72398860418764" viewBox="0 6 100 88" enable-background="new 0 0 100 100" xml:space="preserve" height="115.378613486209" width="115.378613486209" class="icon-xg-0" data-fill-palette-color="quaternary" id="xg-0"><g fill="#000000" data-fill-palette-color="quaternary"><path d="M41.751 59.098v6.119L20 55.789v-5.232l21.751-9.427v6.162l-15.156 5.839L41.751 59.098z" fill="#000000" data-fill-palette-color="quaternary"></path><path d="M55.2 41l-6.055 24.93c-0.201 0.821-0.377 1.471-0.529 1.946-0.151 0.476-0.382 0.849-0.691 1.112-0.31 0.268-0.761 0.4-1.352 0.4-1.47 0-2.206-0.636-2.206-1.902 0-0.332 0.145-1.16 0.433-2.486l6.033-24.93c0.317-1.326 0.619-2.234 0.907-2.724 0.289-0.49 0.851-0.735 1.688-0.735 0.721 0 1.271 0.173 1.653 0.519 0.382 0.346 0.573 0.822 0.573 1.427C55.654 39.004 55.502 39.818 55.2 41z" fill="#000000" data-fill-palette-color="quaternary"></path><path d="M80 55.789L58.249 65.26v-6.119l15.2-5.967-15.2-5.882v-6.076L80 50.6V55.789z" fill="#000000" data-fill-palette-color="quaternary"></path></g><path d="M94 6H6c-3.313 0-6 2.687-6 6v76c0 3.313 2.687 6 6 6h88c3.314 0 6-2.688 6-6V12C100 8.686 97.314 6 94 6zM79 10c2.205 0 4 1.794 4 4s-1.795 4-4 4-4-1.794-4-4S76.795 10 79 10zM68 10c2.205 0 4 1.794 4 4s-1.795 4-4 4-4-1.794-4-4S65.795 10 68 10zM94 88H6V22h88V88zM90 18c-2.205 0-4-1.794-4-4s1.795-4 4-4 4 1.794 4 4S92.205 18 90 18z" fill="#000000" data-fill-palette-color="quaternary"></path></svg></g></svg></g><g id="text-0"><path d="M26.812 114.065l-20.795-22.531 2.248-5.524 30.768-1.972-2.226 5.469-5.166 0.296-6.113 15.018 3.517 3.757zM22.044 101.089l4.466-10.974-13.935 0.81z" fill="#ffffff" data-fill-palette-color="primary"></path><path d="M70.611 50.596l-3.949-5.63-21.925-10.123 5.223-3.664 16.061 8.019-2.161-17.769 5.215-3.659 2.176 23.941 3.966 5.654z" fill="#ffffff" data-fill-palette-color="primary"></path><path d="M119.444 17.588l-0.96-15.937 5.616-0.339 0.92 15.264c0.075 1.248 0.314 2.35 0.716 3.307 0.402 0.957 0.964 1.751 1.685 2.384 0.721 0.633 1.593 1.09 2.617 1.373 1.025 0.29 2.204 0.394 3.538 0.314v0c1.327-0.08 2.486-0.325 3.475-0.736 0.99-0.404 1.801-0.963 2.434-1.678 0.64-0.715 1.102-1.571 1.386-2.569 0.284-0.998 0.389-2.121 0.314-3.369v0l-0.919-15.264 5.616-0.338 0.96 15.937c0.109 1.816-0.098 3.489-0.622 5.018-0.525 1.523-1.339 2.851-2.444 3.985-1.105 1.134-2.488 2.042-4.151 2.725-1.662 0.683-3.579 1.09-5.752 1.221v0c-2.173 0.131-4.125-0.043-5.856-0.521-1.732-0.479-3.215-1.215-4.448-2.208-1.233-0.993-2.201-2.213-2.905-3.662-0.704-1.455-1.111-3.091-1.22-4.907z" fill="#ffffff" data-fill-palette-color="primary"></path><path d="M186.419 34.778l4.929-2.363c0.569 1.006 1.18 1.972 1.835 2.899 0.649 0.923 1.37 1.804 2.162 2.643 0.798 0.843 1.679 1.65 2.642 2.423 0.964 0.772 2.041 1.517 3.231 2.232v0c1.429 0.859 2.701 1.497 3.817 1.913 1.116 0.416 2.09 0.651 2.923 0.704 0.833 0.053 1.532-0.063 2.097-0.348 0.562-0.28 1.005-0.689 1.329-1.228v0c0.518-0.862 0.569-1.761 0.152-2.698-0.42-0.932-1.381-1.85-2.883-2.753v0c-0.658-0.395-1.378-0.771-2.16-1.126-0.782-0.355-1.579-0.706-2.389-1.054-0.804-0.345-1.594-0.693-2.371-1.044-0.777-0.351-1.486-0.72-2.126-1.105v0c-1.066-0.641-2.004-1.391-2.816-2.249-0.817-0.862-1.437-1.795-1.861-2.798-0.429-1.007-0.62-2.056-0.574-3.147 0.049-1.082 0.404-2.173 1.066-3.273v0c0.389-0.646 0.863-1.237 1.424-1.772 0.561-0.535 1.213-0.977 1.955-1.325 0.742-0.349 1.572-0.587 2.49-0.714 0.921-0.133 1.931-0.117 3.028 0.049 1.1 0.16 2.287 0.484 3.561 0.972 1.277 0.482 2.653 1.167 4.126 2.053v0c1.066 0.641 2.099 1.343 3.099 2.106 1.009 0.761 1.959 1.556 2.85 2.385 0.894 0.823 1.722 1.668 2.482 2.535 0.766 0.87 1.445 1.73 2.038 2.58v0l-4.46 2.622c-0.495-0.691-1.053-1.394-1.674-2.107-0.621-0.713-1.299-1.414-2.035-2.104-0.727-0.692-1.507-1.358-2.341-1.998-0.837-0.65-1.72-1.254-2.65-1.814v0c-1.332-0.801-2.484-1.363-3.456-1.684-0.972-0.322-1.803-0.486-2.495-0.493-0.682-0.009-1.234 0.115-1.658 0.369-0.42 0.249-0.741 0.558-0.962 0.927v0c-0.426 0.709-0.454 1.48-0.082 2.313 0.362 0.835 1.198 1.647 2.507 2.434v0c0.527 0.317 1.156 0.645 1.887 0.984 0.734 0.333 1.505 0.681 2.313 1.044 0.814 0.366 1.635 0.748 2.462 1.144 0.836 0.395 1.625 0.815 2.367 1.262v0c1.4 0.842 2.544 1.746 3.43 2.711 0.895 0.963 1.533 1.956 1.913 2.98 0.375 1.02 0.503 2.059 0.385 3.114-0.124 1.053-0.492 2.089-1.106 3.11v0c-0.825 1.372-1.877 2.403-3.156 3.092-1.279 0.69-2.726 1.047-4.339 1.073-1.611 0.035-3.359-0.256-5.242-0.871-1.884-0.616-3.841-1.534-5.871-2.754v0c-1.338-0.805-2.595-1.673-3.772-2.604-1.179-0.941-2.26-1.915-3.244-2.924-0.986-1.018-1.88-2.06-2.68-3.129-0.801-1.068-1.5-2.133-2.097-3.194z" fill="#ffffff" data-fill-palette-color="primary"></path><path d="M236.525 85.057l25.182-11.671 2.366 5.105-6.572 3.046 7.256 15.657 6.572-3.047 2.374 5.123-25.181 11.671-2.375-5.122 14.243-6.602-7.256-15.656-14.243 6.601z" fill="#ffffff" data-fill-palette-color="primary"></path><path d="M9.649 142.94c0-1.779 1.442-3.222 3.222-3.222 1.779 0 3.222 1.442 3.221 3.222 0 1.779-1.442 3.222-3.221 3.222-1.779 0-3.222-1.442-3.222-3.222z" fill="#ffffff" data-fill-palette-color="primary"></path><path d="M259.465 142.94c0-1.779 1.442-3.222 3.222-3.222 1.779 0 3.222 1.442 3.222 3.222 0 1.779-1.442 3.222-3.222 3.222-1.779 0-3.222-1.442-3.222-3.222z" fill="#ffffff" data-fill-palette-color="primary"></path></g><g id="text-1"><path d="M37.936 181.316c0.504 1.464 0.692 2.865 0.565 4.202-0.129 1.332-0.518 2.683-1.166 4.054v0l-3.379-1.586c0.421-1.033 0.659-1.948 0.713-2.744 0.055-0.796-0.067-1.628-0.366-2.497v0c-0.584-1.695-1.797-2.761-3.64-3.197-1.845-0.442-4.626-0.024-8.341 1.255v0c-2.621 0.902-4.607 1.778-5.959 2.629-1.358 0.852-2.213 1.72-2.567 2.604-0.36 0.886-0.35 1.88 0.029 2.981v0c0.398 1.157 1.082 2.097 2.052 2.82v0l7.187-2.474-1.033-3.003 3.488-1.756 2.807 8.153-13.005 4.477c-1.173-0.827-2.217-1.836-3.13-3.026-0.907-1.192-1.6-2.482-2.078-3.871v0c-1.139-3.309-0.871-6.168 0.805-8.578 1.679-2.418 4.893-4.444 9.64-6.079v0c3.078-1.059 5.806-1.488 8.184-1.285 2.379 0.203 4.337 0.914 5.877 2.133 1.533 1.221 2.638 2.817 3.317 4.788z" fill="#ffffff" data-fill-palette-color="primary"></path><path d="M47.4 237.767c-0.521 0.48-0.84 0.904-0.958 1.274-0.118 0.37-0.112 0.787 0.019 1.25v0l-3.138 1.515c-0.656-0.907-1.04-1.763-1.152-2.569-0.108-0.8 0.077-1.64 0.553-2.519v0c-2.36 0.474-4.302-0.116-5.826-1.77v0c-1.215-1.319-1.738-2.775-1.57-4.369 0.168-1.594 0.992-3.073 2.472-4.435v0c1.713-1.578 3.512-2.246 5.398-2.005 1.877 0.241 3.752 1.378 5.626 3.412v0l1.129 1.226 1.109-1.022c0.997-0.919 1.541-1.739 1.632-2.461 0.086-0.727-0.23-1.479-0.946-2.258v0c-0.865-0.939-2.199-1.869-4.001-2.791v0l1.627-3.037c1.09 0.471 2.125 1.047 3.104 1.729 0.979 0.682 1.826 1.412 2.543 2.19v0c3.196 3.469 3.039 6.82-0.468 10.051v0zM40.462 233.486c0.883 0.959 2.212 1.079 3.988 0.36v0l3.321-3.059-0.794-0.861c-0.941-1.022-1.856-1.556-2.743-1.601-0.893-0.041-1.816 0.377-2.769 1.256v0c-0.817 0.753-1.31 1.463-1.478 2.13-0.158 0.668 0 1.259 0.475 1.775z" fill="#ffffff" data-fill-palette-color="primary"></path><path d="M101.168 251.504l4.271 1.799-11.764 18.4-5.624-2.369 4.372-16.57-8.762 14.722-5.588-2.353 4.869-21.304 4.463 1.879-4.88 17.24 9.416-15.329 4.691 1.975-4.505 17.398z" fill="#ffffff" data-fill-palette-color="primary"></path><path d="M148.317 273.721c0.014 0.708 0.121 1.228 0.319 1.562 0.199 0.333 0.515 0.605 0.949 0.814v0l-0.945 3.354c-1.114-0.11-2.009-0.39-2.687-0.839-0.671-0.45-1.178-1.144-1.52-2.084v0c-1.209 2.082-2.938 3.145-5.187 3.19v0c-1.792 0.036-3.23-0.537-4.312-1.72-1.082-1.183-1.644-2.779-1.684-4.79v0c-0.047-2.328 0.645-4.119 2.076-5.371 1.424-1.246 3.519-1.897 6.284-1.952v0l1.666-0.033-0.03-1.508c-0.027-1.356-0.281-2.307-0.762-2.853-0.487-0.546-1.26-0.808-2.318-0.788v0c-1.277 0.026-2.857 0.408-4.741 1.147v0l-1.196-3.231c1.075-0.505 2.192-0.897 3.351-1.179 1.159-0.281 2.267-0.432 3.326-0.453v0c4.716-0.094 7.121 2.243 7.216 7.011v0zM140.514 276.08c1.303-0.026 2.274-0.942 2.912-2.748v0l-0.09-4.514-1.171 0.024c-1.389 0.028-2.395 0.359-3.017 0.993-0.622 0.641-0.921 1.61-0.895 2.906v0c0.022 1.111 0.228 1.951 0.616 2.519 0.395 0.561 0.943 0.835 1.645 0.82z" fill="#ffffff" data-fill-palette-color="primary"></path><path d="M187.448 245.718c1.419-0.618 2.76-0.596 4.022 0.067 1.269 0.66 2.276 1.848 3.024 3.564v0l6.366 14.621-4.595 2-6.139-14.102c-0.412-0.946-0.837-1.566-1.275-1.858-0.44-0.299-0.909-0.34-1.407-0.124v0c-1.043 0.454-1.647 1.886-1.81 4.295v0l6.009 13.802-4.585 1.996-8.592-19.734 3.985-1.735 1.458 2.428c0.219-1.336 0.597-2.424 1.133-3.264 0.536-0.84 1.338-1.492 2.406-1.956z" fill="#ffffff" data-fill-palette-color="primary"></path><path d="M217.522 211.753l3.795-3.3 22.05 20.558-3.025 3.244-1.983-1.51c0.639 2.332 0.272 4.233-1.099 5.704v0c-1.516 1.626-3.403 2.19-5.663 1.694-2.264-0.492-4.705-1.958-7.323-4.398v0c-1.669-1.556-2.923-3.146-3.761-4.769-0.843-1.618-1.233-3.14-1.171-4.565 0.067-1.421 0.581-2.646 1.542-3.677v0c1.182-1.268 2.679-1.821 4.491-1.66v0zM235.469 232.826c0.424-0.455 0.65-1.013 0.678-1.674 0.024-0.665-0.095-1.455-0.356-2.367v0l-7.65-7.133c-1.665-0.358-2.876-0.131-3.634 0.682v0c-1.498 1.606-0.401 4.131 3.291 7.573v0c2.003 1.868 3.616 3 4.837 3.397 1.222 0.397 2.166 0.238 2.834-0.478z" fill="#ffffff" data-fill-palette-color="primary"></path><path d="M257.905 176.409c0.231 0.082 0.868 0.352 1.914 0.808v0l-3.729 10.46c2.135 0.649 3.73 0.806 4.783 0.472 1.051-0.328 1.782-1.068 2.193-2.221v0c0.282-0.791 0.402-1.553 0.361-2.283-0.039-0.737-0.219-1.581-0.541-2.532v0l3.379-0.997c1.095 2.406 1.196 4.861 0.303 7.366v0c-0.949 2.661-2.594 4.371-4.937 5.13-2.345 0.765-5.19 0.552-8.536-0.641v0c-3.346-1.193-5.749-2.815-7.209-4.866-1.456-2.043-1.742-4.305-0.858-6.785v0c0.846-2.374 2.369-3.917 4.568-4.629 2.193-0.714 4.963-0.475 8.309 0.718zM255.153 180.611l-0.261-0.093c-1.919-0.684-3.399-0.955-4.44-0.814-1.049 0.146-1.756 0.73-2.121 1.752v0c-0.338 0.947-0.165 1.823 0.517 2.628 0.676 0.803 2.068 1.636 4.176 2.5v0z" fill="#ffffff" data-fill-palette-color="primary"></path></g></svg></g></svg></g></svg></g><g></g></svg></g><defs></defs></svg><rect width="279.72" height="279.72" fill="none" stroke="none" visibility="hidden"></rect></g></svg></g></svg>